<svg xmlns="http://www.w3.org/2000/svg">
    <symbol id="star" viewBox="0 0 50 50" fill="currentColor">
        <path d="M26.285,2.486l5.407,10.956c0.376,0.762,1.103,1.29,1.944,1.412l12.091,1.757
	c2.118,0.308,2.963,2.91,1.431,4.403l-8.749,8.528c-0.608,0.593-0.886,1.448-0.742,2.285l2.065,12.042
	c0.362,2.109-1.852,3.717-3.746,2.722l-10.814-5.685c-0.752-0.395-1.651-0.395-2.403,0l-10.814,5.685
	c-1.894,0.996-4.108-0.613-3.746-2.722l2.065-12.042c0.144-0.837-0.134-1.692-0.742-2.285l-8.749-8.528
	c-1.532-1.494-0.687-4.096,1.431-4.403l12.091-1.757c0.841-0.122,1.568-0.65,1.944-1.412l5.407-10.956
	C22.602,0.567,25.338,0.567,26.285,2.486z"/>
    </symbol>
    <symbol id="info" viewBox="0 0 50 50" fill="currentColor">
        <path d="M0 0h48v48h-48z" fill="none"/>
        <path d="M22 34h4v-12h-4v12zm2-30c-11.05 0-20 8.95-20 20s8.95 20 20 20 20-8.95 20-20-8.95-20-20-20zm0 36c-8.82 0-16-7.18-16-16s7.18-16 16-16 16 7.18 16 16-7.18 16-16 16zm-2-22h4v-4h-4v4z"/>
    </symbol>
    <symbol id="cross" viewBox="0 0 24 24" fill="none">
        <path fill-rule="evenodd" clip-rule="evenodd"
              d="M4.29289 4.29289C4.68342 3.90237 5.31658 3.90237 5.70711 4.29289L12 10.5858L18.2929 4.29289C18.6834 3.90237 19.3166 3.90237 19.7071 4.29289C20.0976 4.68342 20.0976 5.31658 19.7071 5.70711L13.4142 12L19.7071 18.2929C20.0976 18.6834 20.0976 19.3166 19.7071 19.7071C19.3166 20.0976 18.6834 20.0976 18.2929 19.7071L12 13.4142L5.70711 19.7071C5.31658 20.0976 4.68342 20.0976 4.29289 19.7071C3.90237 19.3166 3.90237 18.6834 4.29289 18.2929L10.5858 12L4.29289 5.70711C3.90237 5.31658 3.90237 4.68342 4.29289 4.29289Z"
              fill="currentColor"/>
    </symbol>
    <symbol id="loupe" viewBox="0 0 50 50">
        <path d="M 21 3 C 11.621094 3 4 10.621094 4 20 C 4 29.378906 11.621094 37 21 37 C 24.710938 37 28.140625 35.804688 30.9375 33.78125 L 44.09375 46.90625 L 46.90625 44.09375 L 33.90625 31.0625 C 36.460938 28.085938 38 24.222656 38 20 C 38 10.621094 30.378906 3 21 3 Z M 21 5 C 29.296875 5 36 11.703125 36 20 C 36 28.296875 29.296875 35 21 35 C 12.703125 35 6 28.296875 6 20 C 6 11.703125 12.703125 5 21 5 Z"
              fill="currentColor"/>
    </symbol>
    <symbol id="trash" viewBox="0 0 36 36">
        <path d="M25,10H7v17c0,1.105,0.895,2,2,2h14c1.105,0,2-0.895,2-2V10z" fill="none" stroke="#000000"
              stroke-linecap="round" stroke-linejoin="round" stroke-miterlimit="10" stroke-width="2"/>
        <path d="  M20,7h-8V5c0-1.105,0.895-2,2-2h4c1.105,0,2,0.895,2,2V7z" fill="none" id="XMLID_145_" stroke="#000000"
              stroke-linecap="round" stroke-linejoin="round" stroke-miterlimit="10" stroke-width="2"/>
        <path d="  M28,10H4V8c0-0.552,0.448-1,1-1h22c0.552,0,1,0.448,1,1V10z" fill="none" id="XMLID_146_"
              stroke="#000000" stroke-linecap="round" stroke-linejoin="round" stroke-miterlimit="10" stroke-width="2"/>
        <line fill="none" id="XMLID_148_" stroke="#000000" stroke-linecap="round" stroke-linejoin="round"
              stroke-miterlimit="10" stroke-width="2" x1="16" x2="16" y1="15" y2="24"/>
        <line fill="none" id="XMLID_147_" stroke="#000000" stroke-linecap="round" stroke-linejoin="round"
              stroke-miterlimit="10" stroke-width="2" x1="12" x2="12" y1="15" y2="24"/>
        <line fill="none" id="XMLID_149_" stroke="#000000" stroke-linecap="round" stroke-linejoin="round"
              stroke-miterlimit="10" stroke-width="2" x1="20" x2="20" y1="15" y2="24"/>
    </symbol>
    <symbol id="cart" viewBox="0 0 36 36">
        <path xmlns="http://www.w3.org/2000/svg"
              d="M31.998,0.772c-0.133-0.535-0.677-0.863-1.213-0.728l-4.004,1c-0.39,0.098-0.684,0.418-0.746,0.813l-0.507,3.208     L0.878,8.022c-0.019,0.002-0.034,0.016-0.055,0.02C0.8,8.046,0.779,8.039,0.755,8.045c-0.057,0.014-0.1,0.049-0.15,0.071     c-0.057,0.024-0.11,0.043-0.16,0.076C0.375,8.24,0.318,8.302,0.263,8.365C0.234,8.396,0.198,8.414,0.173,8.448     c-0.006,0.008-0.006,0.018-0.01,0.026C0.109,8.558,0.078,8.652,0.05,8.748c-0.01,0.035-0.03,0.065-0.036,0.101     C-0.006,8.981-0.006,9.12,0.028,9.258l3.004,12l1,4c0.008,0.029,0.025,0.052,0.035,0.079c0.016,0.048,0.037,0.092,0.061,0.137     c0.033,0.065,0.074,0.125,0.122,0.182c0.029,0.034,0.06,0.068,0.093,0.101c0.061,0.053,0.125,0.094,0.194,0.131     c0.036,0.021,0.068,0.043,0.107,0.059c0.112,0.042,0.232,0.068,0.357,0.068h21.022c0.553,0,1-0.447,1-0.999     c0-0.553-0.447-1.001-1-1.001H5.783l-0.5-2h18.739c0.123,0,0.242-0.021,0.352-0.063c0.045-0.018,0.08-0.047,0.121-0.069     c0.062-0.033,0.126-0.062,0.179-0.107c0.039-0.033,0.065-0.078,0.102-0.119c0.042-0.051,0.089-0.095,0.122-0.15     c0.027-0.053,0.039-0.113,0.059-0.172c0.021-0.053,0.047-0.103,0.059-0.158l0.004-0.021v-0.011L27.91,2.824l3.36-0.839     C31.808,1.851,32.133,1.308,31.998,0.772z M4.783,20.014L2.244,9.873l3.104-0.372l1.505,10.513H4.783z M8.873,20.014L7.336,9.263     l3.119-0.374l0.505,11.125H8.873z M15.056,20.014h-2.089L12.449,8.649l3.116-0.373L15.056,20.014z M19.133,20.014H17.06     l0.52-11.98l3.102-0.371L19.133,20.014z M23.146,20.014h-1.994l1.576-12.598l2.133-0.255L23.146,20.014z M9.005,28.014     c-1.104,0-2.002,0.896-2.002,2.001c0,1.105,0.897,1.999,2.002,1.999c1.106,0,2.002-0.895,2.002-1.999     C11.007,28.912,10.111,28.014,9.005,28.014z M22.021,28.014c-1.105,0-2.002,0.896-2.002,2.001c0,1.105,0.896,1.999,2.002,1.999     c1.104,0,2.002-0.895,2.002-1.999C24.021,28.911,23.125,28.014,22.021,28.014z"/>
    </symbol>
    <symbol id="pencil" fill="#000000" viewBox="0 0 50 50">
        <path d="M30.133 1.552c-1.090-1.044-2.291-1.573-3.574-1.573-2.006 0-3.47 1.296-3.87 1.693-0.564 0.558-19.786 19.788-19.786 19.788-0.126 0.126-0.217 0.284-0.264 0.456-0.433 1.602-2.605 8.71-2.627 8.782-0.112 0.364-0.012 0.761 0.256 1.029 0.193 0.192 0.45 0.295 0.713 0.295 0.104 0 0.208-0.016 0.31-0.049 0.073-0.024 7.41-2.395 8.618-2.756 0.159-0.048 0.305-0.134 0.423-0.251 0.763-0.754 18.691-18.483 19.881-19.712 1.231-1.268 1.843-2.59 1.819-3.925-0.025-1.319-0.664-2.589-1.901-3.776zM22.37 4.87c0.509 0.123 1.711 0.527 2.938 1.765 1.24 1.251 1.575 2.681 1.638 3.007-3.932 3.912-12.983 12.867-16.551 16.396-0.329-0.767-0.862-1.692-1.719-2.555-1.046-1.054-2.111-1.649-2.932-1.984 3.531-3.532 12.753-12.757 16.625-16.628zM4.387 23.186c0.55 0.146 1.691 0.57 2.854 1.742 0.896 0.904 1.319 1.9 1.509 2.508-1.39 0.447-4.434 1.497-6.367 2.121 0.573-1.886 1.541-4.822 2.004-6.371zM28.763 7.824c-0.041 0.042-0.109 0.11-0.19 0.192-0.316-0.814-0.87-1.86-1.831-2.828-0.981-0.989-1.976-1.572-2.773-1.917 0.068-0.067 0.12-0.12 0.141-0.14 0.114-0.113 1.153-1.106 2.447-1.106 0.745 0 1.477 0.34 2.175 1.010 0.828 0.795 1.256 1.579 1.27 2.331 0.014 0.768-0.404 1.595-1.24 2.458z"></path>
    </symbol>
</svg>